<?xml version="1.0" encoding="utf-8"?>
<svg xml:space="preserve" viewBox="5 5 90 90" y="0" x="0" xmlns="http://www.w3.org/2000/svg" version="1.1" width="128px" height="128px" xmlns:xlink="http://www.w3.org/1999/xlink">
    <!-- Icon 'Hacker' from loading.io -->
    <!-- https://loading.io/icon/l2aqgv -->
    <g>
        <path fill="#333" d="M73.142 41.007c0-.084.003-.166.003-.25 0-14.843-6.384-26.875-14.259-26.875-2.438 0-4.733 1.156-6.739 3.191a2.997 2.997 0 0 1-4.294 0c-2.007-2.035-4.301-3.191-6.739-3.191-7.875 0-14.26 12.032-14.26 26.875 0 .084.003.166.003.25C15.209 44.052 7.5 49.325 7.5 55.324 7.5 64.752 26.528 69.8 50 69.8s42.5-5.047 42.5-14.476c0-5.999-7.709-11.272-19.358-14.317z" style="fill:rgb(51, 51, 51);" ></path>
        <path fill="#333" d="M76.908 69.209c-17.939 3.926-35.878 3.926-53.817 0-1.505 0-2.611 1.508-2.249 3.068l2.776 10.722c.256 1.104 1.184 1.88 2.249 1.88l12.475 1.185c.665.063 1.337.083 1.999-.011 2.005-.285 3.887-1.279 5.227-2.917 1.309-1.601 2.82-2.517 4.431-2.517s3.122.916 4.431 2.517c1.34 1.639 3.222 2.632 5.227 2.917.662.094 1.334.075 1.999.011l12.475-1.185c1.065 0 1.994-.776 2.249-1.88l2.776-10.722c.363-1.56-.742-3.068-2.248-3.068zM42.99 79.172c-.299 2.048-3.989 3.134-8.243 2.427-4.254-.707-7.461-2.94-7.162-4.988.299-2.048 3.989-3.135 8.243-2.427s7.461 2.94 7.162 4.988zm22.263 2.427c-4.254.707-7.945-.38-8.243-2.427-.299-2.048 2.908-4.281 7.162-4.988s7.945.38 8.243 2.427c.298 2.048-2.908 4.281-7.162 4.988z" style="fill:rgb(51, 51, 51);" ></path>
    </g>
</svg>
